<?xml version="1.0" encoding="utf-8"?>
<!-- Generator: Adobe Illustrator 26.3.1, SVG Export Plug-In . SVG Version: 6.00 Build 0)  -->
<svg version="1.1" id="Logo" xmlns:serif="http://www.serif.com/"
	 xmlns="http://www.w3.org/2000/svg" xmlns:xlink="http://www.w3.org/1999/xlink" x="0px" y="0px" viewBox="0 0 335 315.8"
	 style="enable-background:new 0 0 335 315.8;" xml:space="preserve">
<style type="text/css">
	.st0{fill:#FFFFFF;}
	.st1{fill:none;stroke:#FFFFFF;stroke-width:20;stroke-miterlimit:10;}
	.st2{fill:none;stroke:#FFFFFF;stroke-width:20;stroke-linecap:round;stroke-miterlimit:10;}
	.st3{fill:none;stroke:#FFFFFF;stroke-width:16;stroke-linecap:round;stroke-miterlimit:10;}
</style>
<g>
	<g>
		<path class="st0" d="M156.3,88.9c-0.3,0-0.7,0-1-0.1c-4.4-0.5-7.5-4.5-6.9-8.9c0.7-5.8,2-11.5,3.8-17.1c1.4-4.2,5.9-6.5,10.1-5.1
			c4.2,1.4,6.5,5.9,5.1,10.1c-1.5,4.6-2.6,9.3-3.2,14.1C163.7,85.9,160.3,88.9,156.3,88.9z"/>
		<path class="st0" d="M296.1,162.2c-2.2,0-4.4-0.9-6-2.7c-2.9-3.3-2.7-8.4,0.6-11.3c7-6.3,12.7-13.7,17-22c2-3.9,6.8-5.5,10.8-3.5
			c3.9,2,5.5,6.8,3.5,10.8c-5.2,10.1-12.1,19-20.6,26.6C299.9,161.6,298,162.2,296.1,162.2z M323.9,93.1c-4.1,0-7.7-3.2-8-7.4
			c-0.7-9.4-3.1-18.4-7.1-26.9c-1.9-4-0.2-8.8,3.8-10.7c4-1.9,8.8-0.2,10.7,3.8c4.9,10.2,7.8,21.2,8.6,32.5c0.3,4.4-3,8.2-7.4,8.6
			C324.3,93,324.1,93.1,323.9,93.1z M185.3,35.3c-2.3,0-4.5-1-6.1-2.8c-2.9-3.4-2.5-8.4,0.9-11.3c8.7-7.4,18.5-13,29.2-16.8
			c4.2-1.5,8.7,0.7,10.2,4.9c1.5,4.2-0.7,8.7-4.9,10.2c-8.8,3.1-16.9,7.8-24.1,13.9C189,34.6,187.1,35.3,185.3,35.3z M286,28.9
			c-1.5,0-3-0.4-4.4-1.3c-7.9-5.1-16.5-8.7-25.7-10.7c-4.3-0.9-7.1-5.2-6.1-9.5c0.9-4.3,5.2-7.1,9.5-6.1c11.1,2.4,21.5,6.7,31.1,13
			c3.7,2.4,4.7,7.4,2.3,11.1C291.1,27.6,288.6,28.9,286,28.9z"/>
		<path class="st0" d="M239.9,183.7l-1,0c-4.4,0-8-3.7-7.9-8.1s3.6-8,8.1-7.9l0.9,0c4.6,0,9.1-0.4,13.6-1.2c4.4-0.8,8.5,2.1,9.3,6.5
			c0.8,4.3-2.1,8.5-6.5,9.3C250.9,183.2,245.4,183.7,239.9,183.7z"/>
	</g>
</g>
<circle class="st1" cx="126.3" cy="190.4" r="113.5"/>
<line class="st2" x1="90.2" y1="190.4" x2="162.5" y2="190.4"/>
<line class="st2" x1="126.3" y1="226.5" x2="126.3" y2="154.3"/>
<line class="st3" x1="224.5" y1="91.4" x2="255.9" y2="91.4"/>
</svg>
