<?xml version="1.0" encoding="utf-8"?>
<!-- Generator: Adobe Illustrator 26.3.1, SVG Export Plug-In . SVG Version: 6.00 Build 0)  -->
<svg version="1.1" id="Слой_1" xmlns:serif="http://www.serif.com/"
	 xmlns="http://www.w3.org/2000/svg" xmlns:xlink="http://www.w3.org/1999/xlink" x="0px" y="0px" viewBox="0 0 456 456"
	 style="enable-background:new 0 0 456 456;" xml:space="preserve">
<style type="text/css">
	.st0{fill:#FFFFFF;}
	.st1{fill:none;stroke:#FFFFFF;stroke-width:20;stroke-miterlimit:10;}
	.st2{fill:none;stroke:#FFFFFF;stroke-width:20;stroke-linecap:round;stroke-miterlimit:10;}
	.st3{fill:none;stroke:#FFFFFF;stroke-width:16;stroke-linecap:round;stroke-miterlimit:10;}
</style>
<g>
	<g>
		<path class="st0" d="M215.8,161.3c-0.3,0-0.7,0-1-0.1c-4.4-0.5-7.5-4.5-6.9-8.9c0.7-5.8,2-11.5,3.8-17.1c1.4-4.2,5.9-6.5,10.1-5.1
			c4.2,1.4,6.5,5.9,5.1,10.1c-1.5,4.6-2.6,9.3-3.2,14.1C223.2,158.3,219.8,161.3,215.8,161.3z"/>
		<path class="st0" d="M355.6,234.7c-2.2,0-4.4-0.9-6-2.7c-2.9-3.3-2.7-8.4,0.6-11.3c7-6.3,12.7-13.7,17-22c2-3.9,6.8-5.5,10.8-3.5
			c3.9,2,5.5,6.8,3.5,10.8c-5.2,10.1-12.1,19-20.6,26.6C359.4,234,357.5,234.7,355.6,234.7z M383.4,165.5c-4.1,0-7.7-3.2-8-7.4
			c-0.7-9.4-3.1-18.4-7.1-26.9c-1.9-4-0.2-8.8,3.8-10.7c4-1.9,8.8-0.2,10.7,3.8c4.9,10.2,7.8,21.2,8.6,32.5c0.3,4.4-3,8.2-7.4,8.6
			C383.8,165.5,383.6,165.5,383.4,165.5z M244.8,107.7c-2.3,0-4.5-1-6.1-2.8c-2.9-3.4-2.5-8.4,0.9-11.3c8.7-7.4,18.5-13,29.2-16.8
			c4.2-1.5,8.7,0.7,10.2,4.9c1.5,4.2-0.7,8.7-4.9,10.2c-8.8,3.1-16.9,7.8-24.1,13.9C248.5,107.1,246.6,107.7,244.8,107.7z
			 M345.5,101.3c-1.5,0-3-0.4-4.4-1.3c-7.9-5.1-16.5-8.7-25.7-10.7c-4.3-0.9-7.1-5.2-6.1-9.5c0.9-4.3,5.2-7.1,9.5-6.1
			c11.1,2.4,21.5,6.7,31.1,13c3.7,2.4,4.7,7.4,2.3,11.1C350.6,100,348.1,101.3,345.5,101.3z"/>
		<path class="st0" d="M299.4,256.1l-1,0c-4.4,0-8-3.7-7.9-8.1s3.6-8,8.1-7.9l0.9,0c4.6,0,9.1-0.4,13.6-1.2c4.4-0.8,8.5,2.1,9.3,6.5
			c0.8,4.3-2.1,8.5-6.5,9.3C310.4,255.6,304.9,256.1,299.4,256.1z"/>
	</g>
</g>
<circle class="st1" cx="185.9" cy="262.9" r="113.5"/>
<line class="st2" x1="149.8" y1="262.9" x2="222" y2="262.9"/>
<line class="st2" x1="185.9" y1="299" x2="185.9" y2="226.7"/>
<line class="st3" x1="284" y1="163.9" x2="315.4" y2="163.9"/>
</svg>
